<svg xmlns="http://www.w3.org/2000/svg" xmlns:xlink="http://www.w3.org/1999/xlink" width="17px" height="17px" viewBox="0 0 17 17" version="1.1">
    <title>Phone icon</title>
    <desc>Created with Sketch.</desc>
    <defs />
    <g id="Page-1" stroke="none" stroke-width="1" fill-rule="evenodd">
        <g id="01-Homepage" transform="translate(-747.000000, -21.000000)" fill="#ffffff">
            <g id="New" transform="translate(0.000000, -66.000000)">
                <g id="Group-4" transform="translate(0.000000, 66.000000)">
                    <g id="Top">
                        <g id="Content">
                            <g id="Header">
                                <g id="Global-Header">
                                    <g id="Phone" transform="translate(747.000000, 21.000000)">
                                        <g id="Group-2">
                                            <g id="Group-8">
                                                <path d="M4.53622068,6.3199536 L10.6761135,12.4612492 C11.2213242,13.0065844 12.1719582,13.0069828 12.7179654,12.4612492 L13.3312776,11.8473985 C13.3878298,11.7908334 13.486597,11.7912317 13.5419544,11.8473985 L16.4591701,14.764484 C16.5173153,14.8226424 16.5173153,14.9178471 16.4595684,14.9760055 L16.0266655,15.4082106 C15.3213564,16.1136808 14.3842631,16.5020679 13.3870333,16.5020679 C12.3894053,16.5020679 11.4519137,16.1136808 10.7470028,15.4082106 L1.58993236,6.24944642 C0.133913145,4.79349291 0.133913145,2.42413272 1.5895341,0.968179209 L2.02243697,0.535575785 C2.0503148,0.507293241 2.08814899,0.491757759 2.12757621,0.491757759 C2.16740168,0.491757759 2.20523588,0.507293241 2.23311371,0.535575785 L5.14953293,3.4526613 C5.20807637,3.51121812 5.20807637,3.60602439 5.14953293,3.66418286 L4.53622068,4.27763523 C4.26341621,4.55050203 4.11367244,4.91299661 4.11367244,5.29899359 C4.11367244,5.68459222 4.26341621,6.0470868 4.53622068,6.3199536 L4.53622068,6.3199536 Z M5.50198835,4.01632046 C5.62425254,3.89402833 5.69115933,3.73150329 5.69115933,3.55862126 C5.69115933,3.38534088 5.62425254,3.22321418 5.50198835,3.10092205 L2.58556912,0.183438192 C2.34024422,-0.061146064 1.91450994,-0.061146064 1.67037981,0.183438192 L1.23747694,0.616041615 C-0.412492313,2.26598948 -0.412492313,4.9512378 1.23747694,6.60158401 L10.3945474,15.7603482 C11.1938446,16.559828 12.2567864,17 13.3870333,17 C14.5168819,17 15.5798237,16.559828 16.3783244,15.7603482 L16.8112273,15.3277448 C17.0629242,15.075592 17.0629242,14.6652959 16.8112273,14.4127447 L13.8944098,11.4956592 C13.6506779,11.2510749 13.2241471,11.2506766 12.9788222,11.4952609 L12.3659082,12.1091116 C12.007479,12.4664277 11.3846086,12.465631 11.0285689,12.1091116 L4.88827784,5.96781601 C4.70985973,5.78895879 4.61149082,5.55154476 4.61149082,5.29899359 C4.61149082,5.04604408 4.70985973,4.80863004 4.8886761,4.62977283 L5.50198835,4.01632046 L5.50198835,4.01632046 Z" id="Phone-icon" />
                                            </g>
                                        </g>
                                    </g>
                                </g>
                            </g>
                        </g>
                    </g>
                </g>
            </g>
        </g>
    </g>
</svg>